<mxfile host="app.diagrams.net" modified="2024-04-03T06:29:47.949Z" agent="Mozilla/5.0 (Windows NT 10.0; Win64; x64) AppleWebKit/537.36 (KHTML, like Gecko) Chrome/121.0.0.0 Safari/537.36 OPR/107.0.0.0" version="23.1.5" etag="k5y00-N3md9NaVG-Py2l" type="github">
  <diagram name="Page-1" id="5ZIpAPp3ThUVfuHEqh6p">
    <mxGraphModel>
      <root>
        <mxCell id="0" />
        <mxCell id="1" parent="0" />
      </root>
    </mxGraphModel>
  </diagram>
</mxfile>
